{
    "asset" : {
        "generator" : "Khronos glTF Blender I/O v3.3.27",
        "version" : "2.0"
    },
    "scene" : 0,
    "scenes" : [
        {
            "name" : "Scene",
            "nodes" : [
                0
            ]
        }
    ],
    "nodes" : [
        {
            "mesh" : 0,
            "name" : "Text.001",
            "rotation" : [
                0,
                0.9238794445991516,
                0,
                0.38268372416496277
            ],
            "scale" : [
                -8.441386222839355,
                -8.441386222839355,
                -8.441386222839355
            ],
            "translation" : [
                6.097211837768555,
                0,
                -2.883939743041992
            ]
        }
    ],
    "materials" : [
        {
            "doubleSided" : true,
            "name" : "Material.001",
            "pbrMetallicRoughness" : {
                "baseColorFactor" : [
                    0,
                    0.23455047607421875,
                    0.048171889036893845,
                    1
                ],
                "metallicFactor" : 0,
                "roughnessFactor" : 0.5
            }
        }
    ],
    "meshes" : [
        {
            "name" : "Text.002",
            "primitives" : [
                {
                    "attributes" : {
                        "POSITION" : 0,
                        "NORMAL" : 1,
                        "TEXCOORD_0" : 2
                    },
                    "indices" : 3,
                    "material" : 0
                }
            ]
        }
    ],
    "accessors" : [
        {
            "bufferView" : 0,
            "componentType" : 5126,
            "count" : 1583,
            "max" : [
                0.5230959057807922,
                0.003762050997465849,
                0.48767781257629395
            ],
            "min" : [
                -0.30790266394615173,
                -0.13860177993774414,
                -0.2546674907207489
            ],
            "type" : "VEC3"
        },
        {
            "bufferView" : 1,
            "componentType" : 5126,
            "count" : 1583,
            "type" : "VEC3"
        },
        {
            "bufferView" : 2,
            "componentType" : 5126,
            "count" : 1583,
            "type" : "VEC2"
        },
        {
            "bufferView" : 3,
            "componentType" : 5123,
            "count" : 1920,
            "type" : "SCALAR"
        }
    ],
    "bufferViews" : [
        {
            "buffer" : 0,
            "byteLength" : 18996,
            "byteOffset" : 0,
            "target" : 34962
        },
        {
            "buffer" : 0,
            "byteLength" : 18996,
            "byteOffset" : 18996,
            "target" : 34962
        },
        {
            "buffer" : 0,
            "byteLength" : 12664,
            "byteOffset" : 37992,
            "target" : 34962
        },
        {
            "buffer" : 0,
            "byteLength" : 3840,
            "byteOffset" : 50656,
            "target" : 34963
        }
    ],
    "buffers" : [
        {
            "byteLength" : 54496,
            "uri" : "data:application/octet-stream;base64,"
        }
    ]
}
